<svg width="110" height="110" viewBox="0 0 110 110" fill="none" xmlns="http://www.w3.org/2000/svg">
<path d="M6 49C2.68629 49 0 51.6863 0 55C0 58.3137 2.68629 61 6 61V49ZM108.243 59.2426C110.586 56.8995 110.586 53.1005 108.243 50.7574L70.0589 12.5736C67.7157 10.2304 63.9167 10.2304 61.5736 12.5736C59.2305 14.9167 59.2305 18.7157 61.5736 21.0589L95.5147 55L61.5736 88.9411C59.2305 91.2843 59.2305 95.0833 61.5736 97.4264C63.9167 99.7696 67.7157 99.7696 70.0589 97.4264L108.243 59.2426ZM6 55V61H104V55V49H6V55Z" fill="black"/>
</svg>
