<svg width="110" height="110" viewBox="0 0 110 110" fill="none" xmlns="http://www.w3.org/2000/svg">
<path d="M104 61C107.314 61 110 58.3137 110 55C110 51.6863 107.314 49 104 49V61ZM1.75736 50.7574C-0.585789 53.1005 -0.585789 56.8995 1.75736 59.2426L39.9411 97.4264C42.2843 99.7696 46.0833 99.7696 48.4264 97.4264C50.7695 95.0833 50.7695 91.2843 48.4264 88.9411L14.4853 55L48.4264 21.0589C50.7695 18.7157 50.7695 14.9167 48.4264 12.5736C46.0833 10.2304 42.2843 10.2304 39.9411 12.5736L1.75736 50.7574ZM104 55V49H6V55V61H104V55Z" fill="black"/>
</svg>
