<svg width="274" height="274" viewBox="0 0 274 274" fill="none" xmlns="http://www.w3.org/2000/svg">
<path d="M0 0C90.42 0 180.84 0 274 0C274 90.42 274 180.84 274 274C244.151 274 214.302 274 183.549 274C183.331 215.904 183.331 215.904 183.108 156.634C176.428 163.319 169.749 170.004 162.867 176.891C158.64 181.12 154.414 185.349 150.187 189.577C147.966 191.798 145.746 194.019 143.526 196.241C143.248 196.519 142.969 196.797 142.683 197.084C138.193 201.576 133.704 206.068 129.215 210.561C124.607 215.174 119.998 219.785 115.388 224.396C112.545 227.24 109.702 230.084 106.86 232.93C104.91 234.882 102.959 236.834 101.008 238.785C99.8825 239.91 98.7578 241.035 97.6339 242.161C96.4133 243.384 95.191 244.606 93.9685 245.827C93.4406 246.357 93.4406 246.357 92.902 246.897C91.0668 248.728 89.1964 250.487 87.2279 252.173C86.1926 253.07 85.2235 254.025 84.2565 254.995C83.8593 255.392 83.462 255.789 83.0527 256.198C82.6324 256.621 82.2121 257.044 81.7919 257.466C81.3519 257.907 80.9117 258.348 80.4715 258.788C79.3245 259.937 78.1788 261.087 77.0334 262.237C75.8599 263.415 74.685 264.592 73.5103 265.769C71.2139 268.07 68.9189 270.373 66.6248 272.676C64.6031 270.985 62.6783 269.234 60.8197 267.366C60.5649 267.111 60.31 266.857 60.0474 266.594C59.2023 265.75 58.3587 264.904 57.5152 264.058C56.9062 263.449 56.2972 262.84 55.6881 262.231C54.041 260.584 52.3952 258.936 50.7496 257.287C49.0274 255.562 47.3039 253.838 45.5806 252.115C42.3201 248.853 39.0608 245.59 35.8019 242.326C32.0905 238.61 28.3779 234.895 24.6651 231.18C17.0303 223.541 9.39709 215.9 1.7649 208.258C2.43368 206.687 3.35138 205.679 4.55441 204.477C4.95732 204.072 5.36022 203.668 5.77533 203.251C6.2253 202.803 6.67531 202.356 7.12536 201.909C7.60132 201.432 8.07708 200.956 8.55267 200.479C9.8617 199.168 11.1735 197.86 12.4857 196.552C13.8997 195.142 15.3111 193.729 16.7229 192.317C19.1697 189.869 21.6182 187.424 24.0677 184.979C27.6093 181.445 31.1486 177.908 34.6872 174.37C40.4282 168.631 46.1711 162.894 51.9153 157.158C57.4959 151.586 63.0755 146.012 68.6538 140.438C69.1747 139.917 69.1747 139.917 69.7061 139.386C72.4218 136.672 75.1375 133.958 77.8531 131.244C91.1681 117.938 104.488 104.636 117.807 91.3333C59.4924 91.1149 59.4924 91.1149 0 90.8921C0 60.8977 0 30.9033 0 0Z" fill="#BE1E28"/>
</svg>
