<svg width="26" height="22" viewBox="0 0 26 22" fill="none" xmlns="http://www.w3.org/2000/svg">
<g clip-path="url(#clip0_46_132)">
<path d="M19.3599 17.36C15.8499 20.87 10.1399 20.87 6.62994 17.36C5.29994 16.03 4.44994 14.36 4.13994 12.55L4.28994 12.7C4.67994 13.09 5.30994 13.09 5.69994 12.7C6.08994 12.31 6.08994 11.68 5.69994 11.29L3.69994 9.28999C3.48994 9.07999 3.19994 8.96999 2.88994 8.99999C2.58994 9.02999 2.31994 9.18999 2.15994 9.43999L0.169941 12.44C-0.140059 12.9 -0.0100591 13.52 0.449941 13.83C0.619941 13.94 0.809941 14 0.999941 14C1.31994 14 1.63994 13.84 1.82994 13.55L2.18994 13.01C2.58994 15.18 3.62994 17.18 5.21994 18.77C7.35994 20.91 10.1799 21.99 12.9999 21.99C15.8199 21.99 18.6299 20.92 20.7799 18.77C21.1699 18.38 21.1699 17.75 20.7799 17.36C20.3899 16.97 19.7599 16.97 19.3699 17.36H19.3599Z" fill="black"/>
<path d="M25.55 8.15994C25.09 7.84994 24.47 7.97994 24.16 8.43994L23.8 8.97994C23.4 6.80994 22.36 4.80994 20.77 3.21994C16.49 -1.07006 9.50999 -1.07006 5.21999 3.21994C4.82999 3.60994 4.82999 4.23994 5.21999 4.62994C5.60999 5.01994 6.23999 5.01994 6.62999 4.62994C10.14 1.11994 15.85 1.11994 19.36 4.62994C20.69 5.95994 21.54 7.62994 21.85 9.43994L21.7 9.28994C21.31 8.89994 20.68 8.89994 20.29 9.28994C19.9 9.67994 19.9 10.3099 20.29 10.6999L22.29 12.6999C22.48 12.8899 22.73 12.9899 23 12.9899C23.03 12.9899 23.07 12.9899 23.1 12.9899C23.4 12.9599 23.67 12.7999 23.83 12.5499L25.83 9.54994C26.14 9.08994 26.01 8.46994 25.55 8.15994Z" fill="black"/>
</g>
<defs>
<clipPath id="clip0_46_132">
<rect width="26" height="21.99" fill="white"/>
</clipPath>
</defs>
</svg>
